<?xml version="1.0" encoding="UTF-8" standalone="no"?>
<!-- Created with Inkscape (http://www.inkscape.org/) -->

<svg
   version="1.1"
   id="svg1"
   width="1254"
   height="1254"
   viewBox="0 0 1254 1254"
   xmlns="http://www.w3.org/2000/svg"
   xmlns:svg="http://www.w3.org/2000/svg">
  <defs
     id="defs1">
    <filter
       style="color-interpolation-filters:sRGB;"
       id="filter17"
       x="0"
       y="0"
       width="1"
       height="1">
      <feColorMatrix
         type="hueRotate"
         values="180"
         result="color1"
         id="feColorMatrix16" />
      <feColorMatrix
         values="-1 0 0 0 1 0 -1 0 0 1 0 0 -1 0 1 -0.21 -0.72 -0.07 2 0 "
         result="color2"
         id="feColorMatrix17" />
    </filter>
    <filter
       style="color-interpolation-filters:sRGB;"
       id="filter19"
       x="0"
       y="0"
       width="1"
       height="1">
      <feColorMatrix
         type="hueRotate"
         values="180"
         result="color1"
         id="feColorMatrix18" />
      <feColorMatrix
         values="-1 0 0 0 1 0 -1 0 0 1 0 0 -1 0 1 -0.21 -0.72 -0.07 2 0 "
         result="color2"
         id="feColorMatrix19" />
    </filter>
    <filter
       style="color-interpolation-filters:sRGB;"
       id="filter21"
       x="0"
       y="0"
       width="1"
       height="1">
      <feColorMatrix
         type="hueRotate"
         values="180"
         result="color1"
         id="feColorMatrix20" />
      <feColorMatrix
         values="-1 0 0 0 1 0 -1 0 0 1 0 0 -1 0 1 -0.21 -0.72 -0.07 2 0 "
         result="color2"
         id="feColorMatrix21" />
    </filter>
    <filter
       style="color-interpolation-filters:sRGB;"
       id="filter23"
       x="0"
       y="0"
       width="1"
       height="1">
      <feColorMatrix
         type="hueRotate"
         values="180"
         result="color1"
         id="feColorMatrix22" />
      <feColorMatrix
         values="-1 0 0 0 1 0 -1 0 0 1 0 0 -1 0 1 -0.21 -0.72 -0.07 2 0 "
         result="color2"
         id="feColorMatrix23" />
    </filter>
    <filter
       style="color-interpolation-filters:sRGB;"
       id="filter25"
       x="0"
       y="0"
       width="1"
       height="1">
      <feColorMatrix
         type="hueRotate"
         values="180"
         result="color1"
         id="feColorMatrix24" />
      <feColorMatrix
         values="-1 0 0 0 1 0 -1 0 0 1 0 0 -1 0 1 -0.21 -0.72 -0.07 2 0 "
         result="color2"
         id="feColorMatrix25" />
    </filter>
    <filter
       style="color-interpolation-filters:sRGB;"
       id="filter27"
       x="0"
       y="0"
       width="1"
       height="1">
      <feColorMatrix
         type="hueRotate"
         values="180"
         result="color1"
         id="feColorMatrix26" />
      <feColorMatrix
         values="-1 0 0 0 1 0 -1 0 0 1 0 0 -1 0 1 -0.21 -0.72 -0.07 2 0 "
         result="color2"
         id="feColorMatrix27" />
    </filter>
    <filter
       style="color-interpolation-filters:sRGB;"
       id="filter29"
       x="0"
       y="0"
       width="1"
       height="1">
      <feColorMatrix
         type="hueRotate"
         values="180"
         result="color1"
         id="feColorMatrix28" />
      <feColorMatrix
         values="-1 0 0 0 1 0 -1 0 0 1 0 0 -1 0 1 -0.21 -0.72 -0.07 2 0 "
         result="color2"
         id="feColorMatrix29" />
    </filter>
    <filter
       style="color-interpolation-filters:sRGB;"
       id="filter31"
       x="0"
       y="0"
       width="1"
       height="1">
      <feColorMatrix
         type="hueRotate"
         values="180"
         result="color1"
         id="feColorMatrix30" />
      <feColorMatrix
         values="-1 0 0 0 1 0 -1 0 0 1 0 0 -1 0 1 -0.21 -0.72 -0.07 2 0 "
         result="color2"
         id="feColorMatrix31" />
    </filter>
  </defs>
  <g
     id="g1">
    <g
       id="g35369"
       transform="translate(-4.4216301,19.3999)">
      <path
         id="path35364"
         style="fill:#0074e8;fill-opacity:1;stroke:none;filter:url(#filter31)"
         d="m 661.01215,928.90283 c -15.15162,3.08179 -22.87238,22.26227 -11.97718,34.40784 6.67865,7.44513 17.94953,8.50415 26.94153,11.50952 3.95484,1.32178 11.76904,4.16284 10.35462,9.76648 -1.08844,4.31207 -6.69843,5.02917 -10.35462,5.26935 -7.82764,0.51416 -21.99341,-2.76142 -28.52118,2.43878 -5.28973,4.21387 -1.87469,11.2289 3.89051,12.2628 11.05535,1.9825 27.75,2.148 38.63018,-0.6683 14.10694,-3.6514 19.91028,-22.84059 10.56385,-34.14138 -6.01288,-7.27026 -16.9516,-8.92114 -25.53205,-11.37817 -4.15393,-1.18951 -12.92608,-3.2843 -12.39911,-9.1582 0.32721,-3.64697 4.45319,-5.13373 7.50849,-5.68176 8.46112,-1.51771 20.02441,2.15142 27.77337,-1.96534 11.84436,-6.29248 -3.88525,-13.43811 -9.90362,-13.53662 -3.66126,-0.0598 -7.32532,-0.0313 -10.98694,-0.0258 -5.31042,0.008 -10.75684,-0.16321 -15.98785,0.90075" />
      <path
         id="path35359"
         style="fill:#18232a;fill-opacity:1;stroke:none;filter:url(#filter29)"
         d="m 229.00415,928.89148 c -19.99858,3.9729 -19.00519,22.89722 -19.00407,39.10852 6.1e-4,8.79846 -1.20311,19.07166 3.86648,26.79858 8.13451,12.39842 24.28554,10.21382 37.1332,10.20032 4.75492,0 10.75692,0.7393 15.15814,-1.4353 5.44433,-2.6899 4.60852,-10.35205 -0.82321,-12.45935 -13.27004,-5.14832 -36.85564,6.28576 -39.05999,-15.12097 -0.3741,-3.63294 -0.2863,-7.336 -0.26004,-10.98316 0.0306,-4.25281 -0.0654,-8.80823 1.55635,-12.8197 6.9872,-17.28357 28.92087,-2.59784 39.96256,-11.47522 5.09323,-4.09485 1.49914,-10.85718 -3.87994,-12.0918 -9.97716,-2.28991 -24.6453,-1.70935 -34.64948,0.27808" />
      <path
         id="path35358"
         style="fill:#18232a;stroke:none;filter:url(#filter27)"
         d="m 746,928 c -4.46149,0.0178 -10.67749,-0.78625 -14.55688,1.90015 -3.91443,2.71075 -3.51856,9.43286 0.66125,11.6643 3.96704,2.11792 9.55743,1.42212 13.89563,1.43555 0,15.48615 -4.98187,41.94586 6.01208,54.47028 7.25812,8.26852 18.88044,7.84992 28.96558,7.44242 4.88818,-0.1976 11.46094,-0.9786 12.09674,-7.04332 1.25513,-11.97241 -22.23553,-4.78308 -27.9765,-12.68737 C 758.0307,975.45166 762,954.48792 762,943 c 7.03302,0 19.48895,2.32935 25.55402,-1.83105 4.30841,-2.95539 3.26995,-10.06373 -1.38855,-12.00452 C 779.29413,926.30182 769.31555,928 762,928 c -0.002,-5.14819 1.06744,-12.18793 -1.43695,-16.89331 -2.51135,-4.71838 -10.53906,-4.68884 -13.06079,0 C 744.96643,915.82178 746.00354,922.83374 746,928 m 93.20709,16.06067 c 18.77277,-5.53003 24.82849,8.00098 24.77423,23.93927 -0.0284,8.35229 -0.47314,18.47211 -10.13128,21.11255 -18.87793,5.16095 -23.86823,-7.18439 -23.8465,-23.11243 0.0113,-8.33893 -0.62433,-19.04437 9.20355,-21.93939 m -6.20233,-15.21689 c -21.01532,4.03858 -19.0202,25.56494 -19.0036,42.15613 0.008,8.41113 -0.50879,17.5332 4.65582,24.71387 8.44733,11.74482 29.51966,11.09882 42.3382,8.47572 23.33856,-4.77602 25.3941,-49.48183 14.1048,-65.91884 -8.46869,-12.3302 -28.88355,-11.96582 -42.09522,-9.42688 m 73.43378,1.48419 c -4.53406,3.4964 -3.427,11.67182 -3.4364,16.67249 -0.0293,15.55096 -0.89655,31.42218 0.1419,46.93945 0.39197,5.85724 3.34565,11.77109 10.30231,10.08359 6.6333,-1.609 5.53284,-10.86404 5.54962,-16.02573 0.0452,-13.8742 -6.04449,-45.76593 15.97571,-44.47589 19.30707,1.13111 12.8703,34.6128 13.05066,47.46497 0.0941,6.70373 2.4635,17.36435 11.89465,12.53735 C 967.27869,999.75647 964,980.79926 964,974 c 0,-16.69745 3.02112,-41.67432 -19.00482,-45.36938 -6.67127,-1.11915 -13.32233,-0.0886 -19.99512,0.31427 -5.52368,0.33343 -13.8211,-2.27228 -18.56152,1.38317 M 1036,959 h -32 c 1.8527,-21.05353 30.4769,-21.33167 32,0 z m -32,14 c 10.3322,0 20.6659,0.0489 30.9979,-0.007 4.263,-0.0232 9.9932,0.53278 13.5636,-2.2948 8.9081,-7.05474 2.6702,-30.2525 -4.2925,-36.49896 -9.6208,-8.63122 -32.0066,-8.68762 -43.1802,-3.09625 -12.53326,6.27179 -13.06786,19.612 -13.08672,31.8974 -0.0258,16.80743 -0.49659,38.56211 20.99942,41.51991 9.7865,1.3466 22.1693,1.6271 31.8542,-0.4399 4.8154,-1.0278 9.9756,-4.71081 7.5617,-10.31713 -2.6797,-6.22345 -12.2893,-3.87195 -17.4179,-3.39588 C 1016.688,991.6955 1005.3173,989.0752 1004,973" />
      <path
         id="path35357"
         style="fill:#18232a;stroke:none;filter:url(#filter25)"
         d="m 491,990 c -5.68765,9.8e-4 -14.61423,-1.50989 -19.55414,1.90015 -13.53604,9.34395 10.69489,13.09365 15.55469,13.09875 10.92834,0.012 29.20215,3.4764 39.15967,-1.4353 4.9848,-2.4589 4.98425,-9.66797 2.4e-4,-12.1272 C 520.75037,988.76691 512.85974,990.00067 507,990 v -58 c 0,-8.76392 1.81595,-19.95251 -0.83234,-28.38635 -2.53881,-8.08515 -29.10998,-9.11872 -31.83731,-0.97608 -3.57486,10.67298 14.57581,7.97889 16.22708,17.57703 C 494.3511,942.26569 491,967.62073 491,990 m -171,15 c -1.36707,4.9495 -2.84268,10.062 -6.89017,13.5389 -3.78497,3.2514 -10.63916,3.9145 -11.40667,9.7541 -2.02774,15.4279 22.40417,6.2361 26.95306,-0.5736 9.56393,-14.3172 12.7442,-35.44077 18.03271,-51.7194 4.00556,-12.32947 11.03309,-26.77429 11.74057,-39.78516 0.54822,-10.08166 -11.82379,-8.6007 -15.47912,-1.73126 C 335.16425,949.11609 331.66687,968.11371 327,984 c -5.85516,-14.03796 -10.19067,-28.68225 -15.3699,-42.97766 -2.18796,-6.03906 -5.59595,-13.25177 -13.30722,-12.14649 -9.5318,1.36622 -3.70142,13.79322 -1.79609,19.12452 C 302.78827,965.52069 307.28641,991.11615 320,1005 m 82.00427,-76.10852 C 382.0816,932.84973 382.99899,951.84082 383.00009,968 c 6.1e-4,8.84009 -1.16995,19.0423 3.93418,26.79858 8.16183,12.40272 37.63372,14.46122 50.44656,8.49612 4.99548,-2.3256 6.54083,-9.782 0.7251,-12.19143 -13.0936,-5.42456 -36.78778,6.44574 -38.8646,-15.11999 -0.38168,-3.96338 -0.259,-8.00611 -0.22757,-11.98291 0.0332,-4.20057 -0.097,-8.75647 1.55725,-12.70496 6.6478,-15.86768 28.10001,-2.61401 38.91257,-10.12787 5.08414,-3.53302 2.20416,-10.80902 -2.92773,-12.33575 -9.50052,-2.82642 -24.9028,-1.85742 -34.55158,0.0597 M 603,959 h -32 c 1.63739,-21.19983 30.06232,-21.02197 32,0 m -32,14 c 10.33179,0 20.66541,0.0591 30.99701,-0.01 4.2644,-0.0284 9.93774,0.47547 13.49963,-2.36108 8.79322,-7.00281 2.51697,-29.53888 -4.08166,-35.896 -9.62122,-9.26904 -32.78675,-9.40777 -44.25665,-3.51147 -11.89161,6.1131 -12.13794,19.07727 -12.15625,30.77832 -0.027,17.27795 -1.44263,39.74153 21.00018,42.58353 9.68268,1.2262 22.34784,1.7574 31.8529,-0.6483 4.50977,-1.1414 9.55359,-4.86516 7.42682,-10.17192 -2.49139,-6.21637 -12.27398,-3.92444 -17.28277,-3.46167 C 583.72363,991.62048 572.01935,989.36804 571,973" />
      <path
         id="path35352"
         style="fill:#18232a;stroke:none;filter:url(#filter23)"
         d="M 717,602 V 338 c 0,-25.46283 4.73126,-64.94495 -29.00031,-71.10266 -4.28881,-0.7829 -8.73449,-0.71008 -12.99957,0.1875 -12.63043,2.65802 -22.99304,12.50983 -26.4953,24.91547 C 641.86462,315.52094 647,346.63196 647,371 v 137 l 10e-4,35.99969 c 0.006,5.51874 -0.74518,12.24134 2.30109,17.14618 4.03057,6.48975 13.3258,10.10755 19.69787,13.80799 C 684.79199,584.12457 700.46759,594.23395 717,602 m -223,41 h -3 c -18.73175,22.96399 -42.14041,21.09998 -65,6 l 4.13501,86 5.07739,45.00928 L 469,848 h 64 c 6.42267,0 18.95404,2.29504 24.16345,-2.30219 C 562.73975,840.77679 560,825.66736 560,819 c 0,-22.11682 -4.35382,-49.59558 1.56415,-70.99988 3.70642,-13.40552 15.34631,-22.28845 25.43597,-30.96319 C 605.11908,701.45886 623.3042,685.88416 642,671 v -1 C 622.27185,656.83594 593.68799,644.81097 582.2345,622.98505 563.0426,586.41272 597.35229,551.7149 634,557 v -64 c 0,-11.01825 1.65094,-23.78748 -3.35516,-33.98584 -11.57941,-23.58929 -45.20728,-22.04822 -55.25647,1.99292 -5.45465,13.04938 -3.04206,32.03723 -2.8888,45.99292 0.27094,24.67108 -0.013,49.32806 0.23908,74 0.16321,15.97125 2.31115,33.52356 -2.539,49 C 558.82684,666.28967 516.73932,668.8786 494,643 m 33,-173.05347 c -13.09863,1.1214 -24.25751,11.25775 -27.03497,24.05378 C 494.3989,519.6438 499,550.78223 499,577 c 0,15.7782 -2.78522,34.67755 1.36841,49.99774 3.60562,13.29901 16.99536,22.35272 30.63159,21.4989 14.18048,-0.88788 25.06848,-11.93951 27.88245,-25.4967 C 563.69446,599.81647 560,572.63245 560,549 c 0,-17.54175 2.78534,-37.8703 -1.3689,-54.99939 C 555.15186,479.65466 542.13446,468.65088 527,469.94653 m -72.99988,33.95618 C 440.88965,504.9187 430.43945,514.3725 427.3078,527.00208 422.06567,548.14294 426,574.2854 426,596 c 0,10.39508 -1.31686,22.02136 2.16525,31.99762 4.28919,12.28851 16.67795,21.32935 29.83463,20.43811 13.22119,-0.89557 23.54461,-10.81732 26.62756,-23.43689 C 489.88965,603.4588 486,577.10095 486,555 c 0,-10.71332 1.37775,-22.81287 -2.65872,-32.98236 -4.64295,-11.69745 -16.83274,-19.08429 -29.34116,-18.11493 M 664,668 c -18.68488,18.86963 -40.72528,34.86975 -61,51.99988 -9.60553,8.11572 -22.46265,16.06445 -27.57831,28.0249 -3.96319,9.26587 -2.32019,20.15857 -2.4563,29.97522 -0.31384,22.63568 2.06501,46.55151 -0.96539,69 24.94244,3.63721 51.81519,1 77,1 8.45508,0 22.30328,2.5849 29.85181,-1.83655 4.78082,-2.80029 7.06323,-9.44 9.36132,-14.16748 5.15369,-10.60187 9.89942,-21.39862 15.06275,-31.99597 17.42676,-35.76715 34.85522,-71.69788 51.14087,-108 8.19952,-18.27747 11.54779,-38.9267 -4.82105,-54.13745 -9.22284,-8.57025 -21.74749,-14.07672 -32.5957,-20.29486 -19.39636,-11.11792 -38.70081,-22.4021 -58,-33.68714 -12.31775,-7.20269 -26.00269,-16.56182 -41,-14.70684 -23.08453,2.85528 -34.99481,30.26037 -23.52924,49.81445 6.65046,11.34204 18.71082,17.89795 29.52924,24.63354 13.20978,8.22443 26.02332,17.49317 40,24.3783" />
      <path
         style="fill:#0074e8;fill-opacity:1;stroke:none;filter:url(#filter21)"
         d="m 337,263 c -2.26685,6.02667 -8.00955,14.83447 -6.24304,21.43774 1.73254,6.47626 11.03244,10.22834 16.24365,13.36335 15.33563,9.2257 30.46387,20.26068 46.99939,27.19891 -19.20645,16.07458 -44.11212,27.90961 -66,40 l 9,23 c 24.43994,-10.56952 47.18829,-27.11047 69.99988,-40.79999 8.26883,-4.96222 20.93884,-9.81964 20.64145,-21.20086 C 427.34744,314.75293 414.27637,309.45374 405.99994,304.4126 383.26529,290.565 360.9679,274.61816 337,263"
         id="path35351" />
      <path
         style="fill:#0074e8;fill-opacity:1;stroke:none;filter:url(#filter19)"
         d="m 460,261 v 124 h 60 V 261 h -60"
         id="path35350" />
      <path
         id="path35342"
         style="fill:#18232a;stroke:none;filter:url(#filter17)"
         d="M 304,179.55505 C 279.11508,182.07275 257.17456,198.45789 250.30695,223 246.38397,237.01917 248,252.59192 248,267 v 75 310 79 c 0,16.93341 -1.09285,33.92053 8.03955,48.99792 C 276.65497,814.03357 315.65985,810 350,810 c 12.54465,0 27.42572,2.1803 39.68808,-0.61365 9.59479,-2.18622 11.3598,-27.63647 2.47958,-31.281 C 386.06799,775.60199 377.46188,777 371,777 346.83743,776.99988 303.88385,785.7215 287.39728,763.84454 278.69611,752.29846 281,736.59662 281,723 V 636 353 272 c 0,-12.20166 -2.39169,-27.51257 2.47543,-38.98254 7.7399,-18.23999 26.26963,-20.00843 43.52457,-20.01697 L 437,213 h 369 101 c 14.94055,0 34.30695,-3.14026 47.98584,4.01904 C 975.7254,227.87378 973,251.18726 973,271 v 146 261 l -3.1e-4,53 c -0.004,14.86536 -0.47619,29.55273 -13.30664,39.52362 C 948.35571,779.33411 932.45831,777 919,777 h -63 c -9.98785,0 -21.8017,-1.70697 -31.55743,0.61365 -10.84766,2.58044 -9.35755,30.02868 1.77203,31.94378 C 840.76215,812.06067 857.25183,810 872,810 c 37.37317,0 91.34735,10.33313 118.84155,-21.26678 C 1005.5825,771.79102 1005,752.10828 1005,731 V 655 328 259 c 0,-20.90088 0.366,-40.95398 -13.86981,-57.93066 C 972.79559,179.20471 947.15948,179 921,179 H 815 476 365 c -20.14325,0 -40.9465,-1.47388 -61,0.55505" />
    </g>
  </g>
</svg>
